<?xml version="1.0" encoding="utf-8"?>
<!-- Generator: Adobe Illustrator 24.0.1, SVG Export Plug-In . SVG Version: 6.00 Build 0)  -->
<svg version="1.1" id="Calque_1" xmlns="http://www.w3.org/2000/svg" xmlns:xlink="http://www.w3.org/1999/xlink" x="0px" y="0px"
	 viewBox="0 0 2789.1 1254.7" style="enable-background:new 0 0 2789.1 1254.7;" xml:space="preserve">
<g>
	<polygon points="1184.5,554.4 1290,348.1 1185.5,141.3 1407.7,181.3 1565.6,14.5 1597.5,245.5 1799.6,349.2 1597,452 1564.1,682.9 
		1407,515.4 	"/>
	<path d="M1390.7,486.2c-413.6,734.9-385.2,767.6-508.8,738.5c-79.2-34.3-51.8-133.9-53.5-196.1C833,896.3,841,664.5,841,664.4
		c-223.4,497-226.3,532.9-270.7,555.6c-26.4,16.1-73.2,15.1-100.6-5.7c-59.4-42.7-35.2-149.8-44.9-282.1c-3.3-115.9-7-244-7.3-251
		c1.6-128.8-13.9-237.9-142.2-182.8c-136.8,86.1-129.8,275.5,44,251.8c113.2,2.8,76.2,129.5-1.5,149.8
		c-62.7,23.1-143.5,12.8-194.3-22.7C-28.2,771.8-5.7,541.1,130.9,419.2C248.5,302.9,407,309.1,482.5,362.1
		c73.2,52.6,89.2,157.6,89.5,277.9c0.3,35.1,3.6,230.7,4.1,261.2c242.6-541.6,220.2-570.6,330.7-574.9
		c117.7,11.8,82.3,123.4,85.8,181.1c-3.1,136.5-9.2,403.7-9.2,403.9c21.8-34.9,295.5-546.2,304.5-544.5
		c46.3-43,76.8-29.2,160.1-31.6c182-14.7,114.9,120.4,84.4,132.6C1497,493.2,1431.6,484.8,1390.7,486.2z"/>
	<g>
		<path d="M1380.1,1059.9c0,29.3,22.1,44,66.2,44h174c49.4,0,74.1,17.4,74.1,52.3c0,23.9-8.7,42.5-26.1,55.8s-41.8,20-73.1,20
			h-165.8c-61.6,0-108.5-15.2-140.7-45.7s-48.3-74.9-48.3-133.5c0-75.3,25.5-140.3,76.4-194.9s111.5-82,181.8-82
			c51.1,0,92.2,13.3,123.3,40c31.1,26.7,46.5,61.8,46.5,105.5c0,52.6-21.5,91.6-64.5,116.9c-23.8,14.4-59.4,21.6-106.7,21.6
			L1380.1,1059.9L1380.1,1059.9z M1408.3,952.9h64.5c41.7,0,61.9-8.9,60.7-26.8c-1.2-20.1-14.6-30.2-40.4-30.2
			C1457.2,895.9,1428.9,914.9,1408.3,952.9z"/>
		<path d="M1857.1,1059.9c0,29.3,22.1,44,66.2,44h174c49.4,0,74.1,17.4,74.1,52.3c0,23.9-8.7,42.5-26.1,55.8s-41.8,20-73.1,20
			h-165.8c-61.6,0-108.5-15.2-140.7-45.7s-48.3-74.9-48.3-133.5c0-75.3,25.5-140.3,76.4-194.9s111.5-82,181.8-82
			c51.1,0,92.2,13.3,123.3,40c31.1,26.7,46.5,61.8,46.5,105.5c0,52.6-21.5,91.6-64.5,116.9c-23.8,14.4-59.4,21.6-106.7,21.6
			L1857.1,1059.9L1857.1,1059.9z M1885.2,952.9h64.5c41.7,0,61.9-8.9,60.7-26.8c-1.2-20.1-14.6-30.2-40.4-30.2
			C1934.2,895.9,1905.9,914.9,1885.2,952.9z"/>
		<path d="M2475.3,809.1c41.1-22.1,74.9-33.2,101.5-33.2c37.6,0,68.4,10.4,92.4,31.3c24.1,20.9,36.1,47.5,36.1,79.8
			c0,19.5-4.7,40.7-14.1,63.7l-61.8,153.2h67.4c49.1,0,73.6,17.4,73.6,52.3c0,23.9-8.7,42.5-26,55.8s-41.6,20-72.8,20h-117.8
			c-25,0-46-7.1-63-21.3c-17-14.2-25.5-31.7-25.5-52.3c0-14,4.5-32,13.6-53.8l54.4-132.2c6.7-16.8,10-29.4,10-38
			c0-22.2-14.9-33.3-44.7-33.3c-40,0-73.7,33.9-101.1,101.7l-65.8,160.7c-20.8,51-51.5,76.6-92.3,76.6c-16.1,0-29.8-5.1-41.1-15.2
			c-11.4-10.2-17-22.5-17-36.9c0-10.9,2.9-23.8,8.8-38.7l6.5-15.8L2451.4,505c22.3-53.9,52.7-80.8,91.4-80.8
			c16,0,29.8,5.4,41.3,16.1c11.5,10.8,17.3,23.8,17.3,39c0,12.5-5.1,31.1-15.2,55.7L2475.3,809.1z"/>
	</g>
</g>
</svg>
