<?xml version="1.0" encoding="utf-8"?>
<!-- Generator: Adobe Illustrator 24.0.1, SVG Export Plug-In . SVG Version: 6.00 Build 0)  -->
<svg version="1.1" id="Calque_1" xmlns="http://www.w3.org/2000/svg" xmlns:xlink="http://www.w3.org/1999/xlink" x="0px" y="0px"
	 viewBox="0 0 2864 1354" style="enable-background:new 0 0 2864 1354;" xml:space="preserve">
<style type="text/css">
	.st0{fill:url(#SVGID_1_);stroke:#2E3192;stroke-miterlimit:10;}
	.st1{fill:#E6E6E6;}
	.st2{fill:url(#SVGID_2_);}
	.st3{fill:url(#SVGID_3_);}
	.st4{fill:url(#SVGID_4_);}
	.st5{fill:url(#SVGID_5_);}
	.st6{fill:url(#SVGID_6_);}
	.st7{fill:#1A1A1A;stroke:#2E3192;stroke-miterlimit:10;}
	.st8{stroke:#2E3192;stroke-miterlimit:10;}
	.st9{fill:none;stroke:#2E3192;stroke-miterlimit:10;}
	.st10{fill:url(#SVGID_7_);stroke:#2E3192;stroke-miterlimit:10;}
	.st11{fill:#68002C;stroke:#2E3192;stroke-miterlimit:10;}
	.st12{fill:#E02F66;stroke:#2E3192;stroke-miterlimit:10;}
	.st13{fill:url(#SVGID_8_);stroke:#2E3192;stroke-miterlimit:10;}
	.st14{fill:url(#SVGID_9_);}
	.st15{fill:url(#SVGID_10_);}
	.st16{fill:url(#SVGID_11_);}
	.st17{fill:url(#SVGID_12_);}
	.st18{fill:url(#SVGID_13_);}
</style>
<g>
	<g>
		<polygon points="1229,584.5 1334.5,378.2 1230,171.4 1452.2,211.4 1610.1,44.6 1642,275.6 1844.1,379.3 1641.5,482.1 1608.6,713 
			1451.5,545.5 		"/>
		<path d="M1435.2,516.3c-413.6,734.9-385.2,767.6-508.8,738.5c-79.2-34.3-51.8-133.9-53.5-196.1c4.6-132.3,12.6-364.1,12.6-364.2
			c-223.4,497-226.3,532.9-270.7,555.6c-26.4,16.1-73.2,15.1-100.6-5.7c-59.4-42.7-35.2-149.8-44.9-282.1c-3.3-115.9-7-244-7.3-251
			c1.6-128.8-13.9-237.9-142.2-182.8c-136.8,86.1-129.8,275.5,44,251.8c113.2,2.8,76.2,129.5-1.5,149.8
			c-62.7,23.1-143.5,12.8-194.3-22.7C16.1,801.9,38.7,571.2,175.3,449.3C293,333,451.5,339.2,527,392.2
			c73.2,52.6,89.2,157.6,89.5,277.9c0.3,35.1,3.6,230.7,4.1,261.2c242.6-541.6,220.2-570.6,330.7-574.9
			c117.7,11.8,82.3,123.4,85.8,181.1c-3.1,136.5-9.2,403.7-9.2,403.9c21.8-34.9,295.5-546.2,304.5-544.5
			c46.3-43,76.8-29.2,160.1-31.6c182-14.7,114.9,120.4,84.4,132.6C1541.5,523.3,1476.1,514.9,1435.2,516.3z"/>
		<g>
			<path d="M1424.6,1090c0,29.3,22.1,44,66.2,44h174c49.4,0,74.1,17.4,74.1,52.3c0,23.9-8.7,42.5-26.1,55.8s-41.8,20-73.1,20h-165.8
				c-61.6,0-108.5-15.2-140.7-45.7s-48.3-74.9-48.3-133.5c0-75.3,25.5-140.3,76.4-194.9c50.9-54.6,111.5-82,181.8-82
				c51.1,0,92.2,13.3,123.3,40s46.5,61.8,46.5,105.5c0,52.6-21.5,91.6-64.5,116.9c-23.8,14.4-59.4,21.6-106.7,21.6H1424.6z
				 M1452.8,983h64.5c41.7,0,61.9-8.9,60.7-26.8c-1.2-20.1-14.6-30.2-40.4-30.2C1501.7,926,1473.4,945,1452.8,983z"/>
			<path d="M1901.6,1090c0,29.3,22.1,44,66.2,44h174c49.4,0,74.1,17.4,74.1,52.3c0,23.9-8.7,42.5-26.1,55.8s-41.8,20-73.1,20h-165.8
				c-61.6,0-108.5-15.2-140.7-45.7s-48.3-74.9-48.3-133.5c0-75.3,25.5-140.3,76.4-194.9c50.9-54.6,111.5-82,181.8-82
				c51.1,0,92.2,13.3,123.3,40s46.5,61.8,46.5,105.5c0,52.6-21.5,91.6-64.5,116.9c-23.8,14.4-59.4,21.6-106.7,21.6H1901.6z
				 M1929.7,983h64.5c41.7,0,61.9-8.9,60.7-26.8c-1.2-20.1-14.6-30.2-40.4-30.2C1978.7,926,1950.4,945,1929.7,983z"/>
			<path d="M2519.8,839.2c41.1-22.1,74.9-33.2,101.5-33.2c37.6,0,68.4,10.4,92.4,31.3c24.1,20.9,36.1,47.5,36.1,79.8
				c0,19.5-4.7,40.7-14.1,63.7l-61.8,153.2h67.4c49.1,0,73.6,17.4,73.6,52.3c0,23.9-8.7,42.5-26,55.8s-41.6,20-72.8,20h-117.8
				c-25,0-46-7.1-63-21.3c-17-14.2-25.5-31.7-25.5-52.3c0-14,4.5-32,13.6-53.8l54.4-132.2c6.7-16.8,10-29.4,10-38
				c0-22.2-14.9-33.3-44.7-33.3c-40,0-73.7,33.9-101.1,101.7l-65.8,160.7c-20.8,51-51.5,76.6-92.3,76.6c-16.1,0-29.8-5.1-41.1-15.2
				c-11.4-10.2-17-22.5-17-36.9c0-10.9,2.9-23.8,8.8-38.7l6.5-15.8l254.8-628.5c22.3-53.9,52.7-80.8,91.4-80.8
				c16,0,29.8,5.4,41.3,16.1c11.5,10.8,17.3,23.8,17.3,39c0,12.5-5.1,31.1-15.2,55.7L2519.8,839.2z"/>
		</g>
	</g>
	<g>
		
			<linearGradient id="SVGID_1_" gradientUnits="userSpaceOnUse" x1="185.1533" y1="860.3131" x2="2936.8467" y2="860.3131" gradientTransform="matrix(1 0 0 1 -122 -203)">
			<stop  offset="0.2141" style="stop-color:#E02F66"/>
			<stop  offset="0.9721" style="stop-color:#68002C"/>
		</linearGradient>
		<polygon style="fill:url(#SVGID_1_);" points="1229,584.5 1334.5,378.2 1230,171.4 1452.2,211.4 1610.1,44.6 1642,275.6 
			1844.1,379.3 1641.5,482.1 1608.6,713 1451.5,545.5 		"/>
		
			<linearGradient id="SVGID_2_" gradientUnits="userSpaceOnUse" x1="185.1533" y1="860.3131" x2="2936.8467" y2="860.3131" gradientTransform="matrix(1 0 0 1 -122 -203)">
			<stop  offset="0.2141" style="stop-color:#E02F66"/>
			<stop  offset="0.9721" style="stop-color:#68002C"/>
		</linearGradient>
		<path class="st2" d="M1435.2,516.3c-413.6,734.9-385.2,767.6-508.8,738.5c-79.2-34.3-51.8-133.9-53.5-196.1
			c4.6-132.3,12.6-364.1,12.6-364.2c-223.4,497-226.3,532.9-270.7,555.6c-26.4,16.1-73.2,15.1-100.6-5.7
			c-59.4-42.7-35.2-149.8-44.9-282.1c-3.3-115.9-7-244-7.3-251c1.6-128.8-13.9-237.9-142.2-182.8c-136.8,86.1-129.8,275.5,44,251.8
			c113.2,2.8,76.2,129.5-1.5,149.8c-62.7,23.1-143.5,12.8-194.3-22.7C16.1,801.9,38.7,571.2,175.3,449.3
			C293,333,451.5,339.2,527,392.2c73.2,52.6,89.2,157.6,89.5,277.9c0.3,35.1,3.6,230.7,4.1,261.2
			c242.6-541.6,220.2-570.6,330.7-574.9c117.7,11.8,82.3,123.4,85.8,181.1c-3.1,136.5-9.2,403.7-9.2,403.9
			c21.8-34.9,295.5-546.2,304.5-544.5c46.3-43,76.8-29.2,160.1-31.6c182-14.7,114.9,120.4,84.4,132.6
			C1541.5,523.3,1476.1,514.9,1435.2,516.3z"/>
		<g>
			
				<linearGradient id="SVGID_3_" gradientUnits="userSpaceOnUse" x1="185.1533" y1="860.3131" x2="2936.8467" y2="860.3131" gradientTransform="matrix(1 0 0 1 -122 -203)">
				<stop  offset="0.2141" style="stop-color:#E02F66"/>
				<stop  offset="0.9721" style="stop-color:#68002C"/>
			</linearGradient>
			<path class="st3" d="M1424.6,1090c0,29.3,22.1,44,66.2,44h174c49.4,0,74.1,17.4,74.1,52.3c0,23.9-8.7,42.5-26.1,55.8
				s-41.8,20-73.1,20h-165.8c-61.6,0-108.5-15.2-140.7-45.7s-48.3-74.9-48.3-133.5c0-75.3,25.5-140.3,76.4-194.9
				c50.9-54.6,111.5-82,181.8-82c51.1,0,92.2,13.3,123.3,40s46.5,61.8,46.5,105.5c0,52.6-21.5,91.6-64.5,116.9
				c-23.8,14.4-59.4,21.6-106.7,21.6H1424.6z M1452.8,983h64.5c41.7,0,61.9-8.9,60.7-26.8c-1.2-20.1-14.6-30.2-40.4-30.2
				C1501.7,926,1473.4,945,1452.8,983z"/>
			
				<linearGradient id="SVGID_4_" gradientUnits="userSpaceOnUse" x1="185.1533" y1="860.3131" x2="2936.8467" y2="860.3131" gradientTransform="matrix(1 0 0 1 -122 -203)">
				<stop  offset="0.2141" style="stop-color:#E02F66"/>
				<stop  offset="0.9721" style="stop-color:#68002C"/>
			</linearGradient>
			<path class="st4" d="M1901.6,1090c0,29.3,22.1,44,66.2,44h174c49.4,0,74.1,17.4,74.1,52.3c0,23.9-8.7,42.5-26.1,55.8
				s-41.8,20-73.1,20h-165.8c-61.6,0-108.5-15.2-140.7-45.7s-48.3-74.9-48.3-133.5c0-75.3,25.5-140.3,76.4-194.9
				c50.9-54.6,111.5-82,181.8-82c51.1,0,92.2,13.3,123.3,40s46.5,61.8,46.5,105.5c0,52.6-21.5,91.6-64.5,116.9
				c-23.8,14.4-59.4,21.6-106.7,21.6H1901.6z M1929.7,983h64.5c41.7,0,61.9-8.9,60.7-26.8c-1.2-20.1-14.6-30.2-40.4-30.2
				C1978.7,926,1950.4,945,1929.7,983z"/>
			
				<linearGradient id="SVGID_5_" gradientUnits="userSpaceOnUse" x1="185.1533" y1="860.3131" x2="2936.8467" y2="860.3131" gradientTransform="matrix(1 0 0 1 -122 -203)">
				<stop  offset="0.2141" style="stop-color:#E02F66"/>
				<stop  offset="0.9721" style="stop-color:#68002C"/>
			</linearGradient>
			<path class="st5" d="M2519.8,839.2c41.1-22.1,74.9-33.2,101.5-33.2c37.6,0,68.4,10.4,92.4,31.3c24.1,20.9,36.1,47.5,36.1,79.8
				c0,19.5-4.7,40.7-14.1,63.7l-61.8,153.2h67.4c49.1,0,73.6,17.4,73.6,52.3c0,23.9-8.7,42.5-26,55.8s-41.6,20-72.8,20h-117.8
				c-25,0-46-7.1-63-21.3c-17-14.2-25.5-31.7-25.5-52.3c0-14,4.5-32,13.6-53.8l54.4-132.2c6.7-16.8,10-29.4,10-38
				c0-22.2-14.9-33.3-44.7-33.3c-40,0-73.7,33.9-101.1,101.7l-65.8,160.7c-20.8,51-51.5,76.6-92.3,76.6c-16.1,0-29.8-5.1-41.1-15.2
				c-11.4-10.2-17-22.5-17-36.9c0-10.9,2.9-23.8,8.8-38.7l6.5-15.8l254.8-628.5c22.3-53.9,52.7-80.8,91.4-80.8
				c16,0,29.8,5.4,41.3,16.1c11.5,10.8,17.3,23.8,17.3,39c0,12.5-5.1,31.1-15.2,55.7L2519.8,839.2z"/>
		</g>
	</g>
</g>
</svg>
