<svg id="Calque_1" data-name="Calque 1" xmlns="http://www.w3.org/2000/svg" xmlns:xlink="http://www.w3.org/1999/xlink" viewBox="0 0 2864 1354"><defs><style>.cls-1{fill:#e6e6e6;}.cls-2{fill:#f2f2f2;}.cls-3{fill:url(#Dégradé_Weeh);}</style><linearGradient id="Dégradé_Weeh" x1="65.94" y1="681.09" x2="2759.63" y2="681.09" gradientUnits="userSpaceOnUse"><stop offset="0.21" stop-color="#e02f66"/><stop offset="0.97" stop-color="#68002c"/></linearGradient></defs><title>wesh_logo black</title><polygon class="cls-1" points="1231.83 608.26 1337.27 401.96 1232.75 195.2 1455.01 235.14 1612.85 68.4 1644.78 299.38 1846.86 403.09 1644.33 505.91 1611.37 736.74 1454.27 569.31 1231.83 608.26"/><path class="cls-1" d="M1438,540c-413.64,734.88-385.21,767.63-508.84,738.55-79.18-34.34-51.81-133.93-53.55-196.1,4.57-132.28,12.55-364.07,12.56-364.2-223.36,497-226.29,532.9-270.71,555.63-26.43,16.14-73.19,15.07-100.59-5.75-59.35-42.73-35.2-149.78-44.94-282.06-3.34-115.86-7.05-244-7.25-251,1.6-128.75-13.88-237.94-142.2-182.85-136.8,86.13-129.8,275.52,44,251.83,113.19,2.78,76.24,129.5-1.5,149.82C302.22,977,221.42,966.66,170.67,931.2,18.93,825.72,41.45,595,178.06,473.11,295.76,356.75,454.26,363,529.8,415.94,603,468.55,619.05,573.56,619.35,693.8c.25,35.06,3.63,230.71,4.09,261.23C866,413.42,843.65,384.43,954.14,380.16c117.68,11.79,82.3,123.41,85.76,181.12-3.11,136.47-9.19,403.74-9.19,403.88,21.81-34.88,295.5-546.22,304.45-544.49,46.26-43,76.84-29.17,160.13-31.64,182-14.7,114.93,120.41,84.37,132.56C1544.25,547.1,1478.9,538.71,1438,540Z"/><path class="cls-2" d="M1427.43,1113.77q0,44,66.22,44h174q74.05,0,74.06,52.25,0,35.84-26.14,55.8t-73.11,20H1476.65q-92.42,0-140.67-45.65t-48.25-133.47q0-113,76.41-194.92t181.79-82q76.69,0,123.25,40t46.55,105.47q0,78.9-64.45,116.88-35.77,21.63-106.66,21.62Zm28.13-107H1520q62.49,0,60.72-26.79-1.76-30.19-40.36-30.21Q1486.57,949.77,1455.56,1006.77Z"/><path class="cls-2" d="M1958.89,997.49l-11.11,27.06q-25.74,58.23-73.11,58.22-24,0-43-16.72t-19-38.42q0-20.52,17-54.56l77.9-158.39q28.7-56.91,71.47-56.91,22.83,0,39.24,15t16.4,35.43c0,3.54-1.2,11.14-3.59,22.86a125.86,125.86,0,0,0-2.41,22.86q0,36.95,27.57,75.6l33.42,46.29q51,70.92,51,137.13,0,73.85-55.12,123.36t-137.22,49.51H1825.87q-74.2,0-74.19-51.67,0-35.8,26.3-56.06t72.5-20.27h68q82.21,0,82.23-59.07,0-21.65-15.53-50.9Z"/><path class="cls-2" d="M2464.55,862.93q61.62-33.13,101.55-33.16,56.34,0,92.44,31.28t36.09,79.82q0,29.25-14.14,63.72l-61.85,153.18H2686q73.59,0,73.59,52.25,0,35.84-26,55.8t-72.78,20H2543.07q-37.5,0-63-21.34t-25.47-52.34q0-21.06,13.59-53.8l54.36-132.17q10-25.12,10.05-38,0-33.33-44.66-33.33-60,0-101.08,101.71l-65.82,160.73q-31.16,76.57-92.27,76.56-24.09,0-41.14-15.22t-17-36.92q0-16.38,8.78-38.65l6.45-15.82,254.82-628.54q33.38-80.83,91.37-80.85,24,0,41.3,16.13t17.28,39q0,18.75-15.17,55.69Z"/><polygon class="cls-3" points="1231.83 608.26 1337.27 401.96 1232.75 195.2 1455.01 235.14 1612.85 68.4 1644.78 299.38 1846.86 403.09 1644.33 505.91 1611.37 736.74 1454.27 569.31 1231.83 608.26"/><path class="cls-3" d="M1438,540c-413.64,734.88-385.21,767.63-508.84,738.55-79.18-34.34-51.81-133.93-53.55-196.1,4.57-132.28,12.55-364.07,12.56-364.2-223.36,497-226.29,532.9-270.71,555.63-26.43,16.14-73.19,15.07-100.59-5.75-59.35-42.73-35.2-149.78-44.94-282.06-3.34-115.86-7.05-244-7.25-251,1.6-128.75-13.88-237.94-142.2-182.85-136.8,86.13-129.8,275.52,44,251.83,113.19,2.78,76.24,129.5-1.5,149.82C302.22,977,221.42,966.66,170.67,931.2,18.93,825.72,41.45,595,178.06,473.11,295.76,356.75,454.26,363,529.8,415.94,603,468.55,619.05,573.56,619.35,693.8c.25,35.06,3.63,230.71,4.09,261.23C866,413.42,843.65,384.43,954.14,380.16c117.68,11.79,82.3,123.41,85.76,181.12-3.11,136.47-9.19,403.74-9.19,403.88,21.81-34.88,295.5-546.22,304.45-544.49,46.26-43,76.84-29.17,160.13-31.64,182-14.7,114.93,120.41,84.37,132.56C1544.25,547.1,1478.9,538.71,1438,540Z"/><path class="cls-3" d="M1427.43,1113.77q0,44,66.22,44h174q74.05,0,74.06,52.25,0,35.84-26.14,55.8t-73.11,20H1476.65q-92.42,0-140.67-45.65t-48.25-133.47q0-113,76.41-194.92t181.79-82q76.69,0,123.25,40t46.55,105.47q0,78.9-64.45,116.88-35.77,21.63-106.66,21.62Zm28.13-107H1520q62.49,0,60.72-26.79-1.76-30.19-40.36-30.21Q1486.57,949.77,1455.56,1006.77Z"/><path class="cls-3" d="M1958.89,997.49l-11.11,27.06q-25.74,58.23-73.11,58.22-24,0-43-16.72t-19-38.42q0-20.52,17-54.56l77.9-158.39q28.7-56.91,71.47-56.91,22.83,0,39.24,15t16.4,35.43c0,3.54-1.2,11.14-3.59,22.86a125.86,125.86,0,0,0-2.41,22.86q0,36.95,27.57,75.6l33.42,46.29q51,70.92,51,137.13,0,73.85-55.12,123.36t-137.22,49.51H1825.87q-74.2,0-74.19-51.67,0-35.8,26.3-56.06t72.5-20.27h68q82.21,0,82.23-59.07,0-21.65-15.53-50.9Z"/><path class="cls-3" d="M2464.55,862.93q61.62-33.13,101.55-33.16,56.34,0,92.44,31.28t36.09,79.82q0,29.25-14.14,63.72l-61.85,153.18H2686q73.59,0,73.59,52.25,0,35.84-26,55.8t-72.78,20H2543.07q-37.5,0-63-21.34t-25.47-52.34q0-21.06,13.59-53.8l54.36-132.17q10-25.12,10.05-38,0-33.33-44.66-33.33-60,0-101.08,101.71l-65.82,160.73q-31.16,76.57-92.27,76.56-24.09,0-41.14-15.22t-17-36.92q0-16.38,8.78-38.65l6.45-15.82,254.82-628.54q33.38-80.83,91.37-80.85,24,0,41.3,16.13t17.28,39q0,18.75-15.17,55.69Z"/></svg>